# xmcd CD database file
#
# Track frame offsets:
#	150
#	13463
#	58662
#	65584
#	70346
#	101889
#	129896
#	170612
#	186128
#	206614
#	212282
#	220690
#	224058
#	245906
#	261793
#
# Disc length: 3911 seconds
#
# Revision: 0
# Processed by: cddbd v1.5.2PL0 Copyright (c) Steve Scherf et al.
# Submitted via: CDex 1.51
#
DISCID=f30f450f
DTITLE=Penelope Smith - How To Communicate With Animals Disk1
DYEAR=2004
DGENRE=New Age
TTITLE0=Track01 Introduction To The Course
TTITLE1=Track02 Invocation To All Of Life
TTITLE2=Track03 Reviewing Your History With Animals
TTITLE3=Track04 Overview Of Course
TTITLE4=Track05 Pointers To Enhance Interspecies Communication Introduction Pointers 1/2
TTITLE5=Track06 Pointers 3/5
TTITLE6=Track07 Pointers 6/8
TTITLE7=Track08 Communication Exercise Instructions
TTITLE8=Track09 Recall Communication Exercise
TTITLE9=Track10 Accepting Communication Exersise Instructions
TTITLE10=Track11 Accepting Communication Exersise
TTITLE11=Track12 Exersising The Telepathic Senses Instructions
TTITLE12=Track13 Color Exersise
TTITLE13=Track14 Color Exersise/Second Run Through
TTITLE14=Track15 Favorite Place Exersise
EXTD=YEAR: 2004
EXTT0=
EXTT1=
EXTT2=
EXTT3=
EXTT4=
EXTT5=
EXTT6=
EXTT7=
EXTT8=
EXTT9=
EXTT10=
EXTT11=
EXTT12=
EXTT13=
EXTT14=
PLAYORDER=
